# xmcd
#
# Track frame offsets: 
#        151
#        10059
#        25944
#        37542
#        48848
#        60106
#        71648
#        85098
#        98291
#        109945
#        125855
#        139060
#        153260
#        165659
#        179226
#        194184
#        204667
#        218120
#        232894
#        243449
#        256106
#        268300
#        280624
#        293204
#        313266
#
# Disc length: 4408 seconds
#
# Revision: 0
# Processed by: cddbd v1.5.2PL0 Copyright (c) Steve Scherf et al.
# Submitted via: ExactAudioCopy v0.99pb3
#
DISCID=62113619
DTITLE=Frank Sinatra - Romance Disc 2
DYEAR=1900
DGENRE=Pop
TTITLE0=A Fine Romance
TTITLE1=I've Got You Under My Skin
TTITLE2=Have You Met Miss Jones?
TTITLE3=Fly Me to the Moon
TTITLE4=My Funny Valentine
TTITLE5=What Is This Thing Called Love?
TTITLE6=Bewitched, Bothered and Bewildered
TTITLE7=Call Me Irresponsible
TTITLE8=I'm Beginning to See the Light
TTITLE9=The Very Thought of You
TTITLE10=Summer Wind
TTITLE11=Like Someone in Love
TTITLE12=Quiet Nights of Quiet Stars (Corcovado)
TTITLE13=Desafinado
TTITLE14=Wave
TTITLE15=Watch What Happens
TTITLE16=I Have Dreamed
TTITLE17=I Only Have Eyes for You
TTITLE18=Love Walked In
TTITLE19=It's Always You
TTITLE20=They Can't Take That Away from Me
TTITLE21=The Look of Love
TTITLE22=Call Me
TTITLE23=It Was a Very Good Year
TTITLE24=All the Way
EXTD=
EXTT0=
EXTT1=
EXTT2=
EXTT3=
EXTT4=
EXTT5=
EXTT6=
EXTT7=
EXTT8=
EXTT9=
EXTT10=
EXTT11=
EXTT12=
EXTT13=
EXTT14=
EXTT15=
EXTT16=
EXTT17=
EXTT18=
EXTT19=
EXTT20=
EXTT21=
EXTT22=
EXTT23=
EXTT24=
PLAYORDER=
